<?xml version="1.0" encoding="UTF-8" ?>
<!DOCTYPE svg PUBLIC "-//W3C//DTD SVG 1.1//EN" "http://www.w3.org/Graphics/SVG/1.1/DTD/svg11.dtd">
<svg width="725pt" height="684pt" viewBox="0 0 725 684" version="1.1" xmlns="http://www.w3.org/2000/svg">
<g id="#ffffffff">
<path fill="#ffffff" opacity="1.00" d=" M 0.00 0.00 L 362.52 0.00 C 358.69 22.96 355.56 46.03 351.73 68.98 C 351.17 71.45 354.62 70.40 355.99 70.64 C 363.86 70.10 371.67 71.36 379.53 71.41 C 377.16 58.70 374.66 46.01 371.81 33.40 C 369.80 22.21 367.33 11.11 364.92 0.00 L 725.00 0.00 L 725.00 684.00 L 0.00 684.00 L 0.00 411.41 C 58.76 374.82 124.75 351.02 192.17 336.26 C 205.11 333.81 217.94 330.70 231.00 328.93 C 240.27 327.65 249.49 326.10 258.76 324.86 C 312.23 318.61 366.30 316.65 420.01 320.95 C 475.10 324.76 529.77 334.64 582.69 350.40 C 626.43 363.72 668.98 381.37 708.49 404.48 C 713.49 407.23 718.16 410.56 723.29 413.08 C 721.26 409.16 718.18 405.96 715.34 402.63 C 678.22 360.12 630.62 327.65 579.26 304.76 C 534.78 284.83 487.34 271.92 439.13 265.06 C 404.97 260.71 370.44 258.33 336.01 260.21 C 316.34 260.72 296.79 263.21 277.27 265.57 C 232.37 272.33 188.12 284.17 146.46 302.34 C 113.24 316.59 81.62 334.78 53.10 357.05 C 33.68 372.22 15.57 389.20 0.00 408.33 L 0.00 0.00 M 262.16 12.02 C 262.64 16.13 263.68 20.14 264.71 24.14 C 269.07 45.41 273.91 66.58 278.45 87.82 C 287.07 84.13 295.88 80.87 304.90 78.31 C 302.83 74.39 300.19 70.81 297.91 67.01 C 287.86 51.66 278.18 36.06 267.97 20.81 C 266.21 17.77 264.46 14.70 262.16 12.02 M 459.70 22.67 C 450.80 38.11 441.88 53.54 433.04 69.01 C 430.65 73.21 427.84 77.21 426.07 81.73 C 433.08 84.15 439.94 87.01 446.62 90.26 C 448.30 90.74 450.04 92.40 451.82 91.80 C 453.72 81.89 454.95 71.83 456.85 61.90 C 459.17 49.96 460.58 37.87 462.80 25.91 C 463.42 22.47 464.17 19.02 464.27 15.51 C 462.38 17.65 461.07 20.19 459.70 22.67 M 174.14 65.06 C 175.74 69.11 178.70 72.38 180.98 76.04 C 192.71 94.08 204.74 111.93 216.44 129.99 C 220.03 127.45 222.71 123.88 226.17 121.18 C 229.98 117.76 234.19 114.83 237.92 111.33 C 216.54 96.08 195.47 80.38 174.14 65.06 M 545.58 74.68 C 527.44 89.44 509.14 104.00 491.01 118.77 C 495.13 122.38 499.24 126.01 503.09 129.91 C 505.89 132.60 508.29 135.74 511.53 137.94 C 523.36 117.97 535.09 97.95 546.94 77.99 C 548.07 76.18 549.08 74.29 549.80 72.27 C 548.15 72.58 546.85 73.68 545.58 74.68 M 110.89 146.45 C 112.47 148.48 114.76 149.72 116.81 151.20 C 134.52 163.80 152.29 176.33 169.93 189.04 C 171.40 190.10 172.94 191.09 174.54 191.96 C 176.78 185.76 180.11 180.06 183.22 174.28 C 184.57 171.77 186.35 169.43 186.99 166.60 C 161.62 159.90 136.26 153.16 110.89 146.45 M 583.27 162.57 C 568.45 167.72 553.33 171.94 538.49 177.00 C 542.53 185.17 546.71 193.31 549.64 201.95 C 552.97 201.44 555.18 198.67 557.76 196.78 C 573.24 184.60 588.65 172.34 604.15 160.19 C 606.17 158.48 608.80 157.16 609.74 154.51 C 600.72 156.50 592.23 160.32 583.27 162.57 M 92.98 244.20 C 88.98 244.91 84.57 243.92 80.94 246.11 C 87.48 246.97 93.67 249.41 100.12 250.73 C 111.00 252.96 121.53 256.56 132.41 258.80 C 140.75 260.58 148.79 263.88 157.31 264.64 C 157.55 255.24 159.04 245.95 160.44 236.67 C 137.93 238.94 115.45 241.50 92.98 244.20 M 561.53 248.57 C 562.51 257.90 562.84 267.26 562.78 276.64 C 567.87 276.14 572.53 273.83 577.41 272.49 C 588.82 269.40 599.96 265.41 611.34 262.24 C 620.47 258.93 630.04 257.00 639.07 253.40 C 631.76 252.19 624.32 252.80 616.99 251.80 C 598.49 251.09 580.04 249.45 561.53 248.57 M 194.41 389.52 C 167.92 390.72 140.93 396.12 118.03 410.05 C 103.75 418.65 90.89 430.58 83.98 445.97 C 77.91 458.31 76.13 472.38 76.75 486.00 C 77.74 504.31 87.26 521.20 99.98 534.02 C 112.54 546.59 128.87 554.51 145.43 560.38 C 160.57 564.85 176.17 568.14 191.99 568.54 C 207.41 568.84 222.94 568.94 238.15 566.02 C 249.77 563.63 261.44 561.02 272.42 556.42 C 291.02 549.23 308.10 536.95 318.92 519.99 C 334.45 496.17 334.50 463.45 319.51 439.37 C 315.22 432.00 309.18 425.82 302.95 420.07 C 294.86 412.64 285.01 407.57 275.14 402.94 C 249.82 391.99 221.82 388.48 194.41 389.52 M 374.07 392.66 C 373.80 398.77 373.94 404.89 373.91 411.00 C 374.04 462.62 373.66 514.24 374.10 565.86 C 385.50 565.83 396.90 565.80 408.30 565.87 C 408.71 517.54 408.23 469.19 408.54 420.86 C 410.13 422.88 411.25 425.20 412.45 427.46 C 436.39 473.57 460.44 519.63 484.43 565.72 C 495.20 565.93 505.99 565.86 516.77 565.76 C 541.91 518.03 567.38 470.48 592.76 422.87 C 593.49 441.23 592.90 459.63 593.09 478.00 C 593.10 507.29 593.07 536.58 593.11 565.86 C 604.53 565.82 615.95 565.79 627.36 565.88 C 627.72 559.26 627.44 552.62 627.53 546.00 C 627.45 494.88 627.67 443.76 627.42 392.64 C 611.64 392.58 595.83 392.34 580.06 392.75 C 576.92 396.33 575.66 401.12 573.08 405.09 C 557.39 434.74 541.83 464.45 526.08 494.07 C 518.33 509.43 509.59 524.30 502.58 540.03 C 479.40 493.26 455.08 447.06 431.46 400.51 C 429.97 397.92 429.02 394.93 426.93 392.75 C 409.33 392.35 391.69 392.55 374.07 392.66 M 304.57 592.60 C 296.54 598.19 292.73 608.49 293.40 618.04 C 293.67 623.51 297.15 628.31 301.51 631.38 C 306.80 634.52 313.26 633.57 318.98 632.38 C 321.03 634.77 323.48 636.77 326.04 638.60 C 327.59 636.76 329.05 634.85 330.47 632.91 C 328.95 631.62 327.36 630.43 325.93 629.05 C 325.13 628.37 325.19 627.72 326.10 627.10 C 333.63 619.74 336.20 607.46 332.07 597.77 C 327.19 587.75 312.97 586.35 304.57 592.60 M 410.79 589.57 C 408.43 604.02 404.99 618.25 402.19 632.61 C 405.07 632.66 407.96 632.67 410.85 632.69 C 413.63 622.67 414.94 612.33 417.16 602.19 C 418.05 597.94 419.09 593.72 419.83 589.44 C 416.81 589.45 413.80 589.46 410.79 589.57 M 510.20 589.42 C 506.51 603.68 504.58 618.33 501.13 632.65 C 504.27 632.66 507.41 632.67 510.55 632.65 C 511.71 627.02 512.44 621.29 513.81 615.70 C 514.12 615.46 514.73 614.97 515.03 614.73 C 521.27 614.44 527.53 614.72 533.78 614.64 C 534.43 611.98 535.44 609.29 534.98 606.52 C 528.62 606.73 522.25 606.81 515.90 606.48 C 516.35 603.46 516.95 600.46 517.61 597.48 C 524.44 597.20 531.28 597.75 538.09 597.15 C 538.43 594.58 538.76 592.01 538.95 589.43 C 529.37 589.51 519.78 589.53 510.20 589.42 M 544.76 589.58 C 544.40 592.37 543.89 595.14 543.59 597.94 C 546.40 597.91 549.21 597.90 552.03 597.87 C 552.66 595.06 553.28 592.26 553.85 589.44 C 550.82 589.44 547.79 589.47 544.76 589.58 M 426.95 589.72 C 426.44 592.46 425.89 595.20 425.53 597.97 C 428.49 597.93 431.46 597.90 434.43 597.77 C 434.74 595.03 435.26 592.32 435.52 589.59 C 432.66 589.47 429.80 589.48 426.95 589.72 M 615.91 595.94 C 614.31 597.04 614.41 599.23 613.75 600.89 C 612.39 601.18 611.04 601.44 609.69 601.71 C 609.45 603.81 609.12 605.90 608.73 607.99 C 609.58 608.10 611.27 608.32 612.11 608.43 C 611.60 615.53 608.33 622.40 609.51 629.61 C 611.85 634.45 618.06 633.82 622.49 632.92 C 622.60 630.77 622.79 628.63 622.94 626.49 C 621.32 626.37 619.71 626.22 618.11 626.03 C 618.44 620.06 620.37 614.34 621.29 608.46 C 623.02 608.31 624.77 608.15 626.50 607.89 C 626.86 605.74 627.30 603.62 627.74 601.50 C 626.16 601.39 624.58 601.29 623.02 601.19 C 623.29 597.48 624.08 593.86 624.97 590.27 C 621.99 592.22 618.80 593.85 615.91 595.94 M 442.53 596.44 C 442.21 597.93 441.88 599.42 441.58 600.92 C 440.19 601.14 438.80 601.34 437.41 601.52 C 437.02 603.72 436.65 605.94 436.44 608.18 C 437.31 608.24 439.06 608.36 439.94 608.42 C 439.35 614.37 437.31 620.07 436.68 626.02 C 436.28 628.27 437.32 630.62 439.20 631.90 C 441.97 634.05 445.69 633.51 448.95 633.31 C 450.68 631.61 450.37 628.73 450.98 626.49 C 449.19 626.24 446.73 627.03 445.79 624.96 C 446.52 619.46 447.93 614.08 448.64 608.57 C 450.40 608.37 452.16 608.16 453.92 607.90 C 454.28 605.96 454.62 604.02 455.16 602.13 C 457.67 607.96 457.85 614.48 459.19 620.64 C 459.82 626.25 462.92 633.20 457.79 637.63 C 455.91 637.71 454.03 637.77 452.16 637.86 C 451.93 639.99 451.71 642.12 451.48 644.26 C 456.83 646.73 463.95 645.38 466.70 639.80 C 473.06 628.70 478.85 617.29 485.16 606.18 C 486.00 604.66 486.58 603.02 487.11 601.38 C 484.21 601.37 481.32 601.38 478.43 601.41 C 474.58 608.51 470.82 615.66 467.43 622.98 C 466.49 615.76 465.79 608.52 464.65 601.33 C 459.94 601.39 455.22 601.57 450.51 601.30 C 451.09 597.78 451.81 594.30 452.40 590.79 C 448.96 592.40 445.75 594.44 442.53 596.44 M 341.60 601.44 C 340.14 609.62 337.33 617.66 337.29 626.03 C 337.05 630.10 340.83 633.95 344.97 633.49 C 348.99 633.88 352.63 631.75 355.51 629.15 C 355.38 630.33 355.27 631.51 355.17 632.71 C 357.88 632.68 360.60 632.65 363.31 632.53 C 364.78 622.02 367.45 611.72 369.66 601.36 C 366.61 601.39 363.56 601.39 360.51 601.38 C 359.50 606.80 358.29 612.18 357.33 617.62 C 356.79 620.74 355.30 623.78 352.69 625.68 C 350.96 627.16 348.53 626.47 346.47 626.49 C 345.41 617.92 350.03 609.88 349.92 601.32 C 347.14 601.37 344.37 601.39 341.60 601.44 M 373.91 609.84 C 376.47 610.21 379.04 610.72 381.65 610.71 C 382.99 609.92 383.87 608.55 385.08 607.59 C 386.90 607.31 389.07 607.05 390.52 608.48 C 391.07 609.75 390.62 611.17 390.64 612.52 C 385.49 614.16 379.57 612.81 374.88 615.87 C 369.88 619.25 369.02 627.27 373.73 631.26 C 377.44 634.92 383.38 633.69 387.12 630.74 C 389.58 633.52 393.43 632.51 396.71 632.73 C 395.47 625.31 398.41 618.20 399.41 610.97 C 399.89 608.15 398.85 605.15 396.67 603.30 C 393.36 600.08 388.21 600.31 383.96 600.88 C 379.14 601.52 375.55 605.46 373.91 609.84 M 424.56 601.47 C 422.22 611.83 420.72 622.36 418.25 632.70 C 421.27 632.69 424.29 632.70 427.30 632.50 C 428.68 622.01 431.93 611.84 433.05 601.33 C 430.21 601.36 427.38 601.39 424.56 601.47 M 542.69 601.51 C 540.36 611.85 538.52 622.29 536.31 632.65 C 539.29 632.69 542.28 632.69 545.26 632.50 C 546.88 622.04 550.02 611.86 551.18 601.33 C 548.34 601.36 545.51 601.38 542.69 601.51 M 558.16 601.38 C 556.43 611.86 553.48 622.13 552.12 632.67 C 554.97 632.67 557.83 632.66 560.69 632.66 C 562.09 626.72 562.92 620.64 564.79 614.82 C 566.11 610.59 570.53 607.89 574.91 608.67 C 576.23 606.36 577.28 603.91 577.93 601.33 C 575.98 600.96 573.98 600.29 571.99 600.76 C 569.34 601.81 567.34 603.90 565.32 605.83 C 565.61 604.34 565.84 602.85 566.06 601.36 C 563.42 601.37 560.79 601.37 558.16 601.38 M 580.67 604.67 C 578.10 607.10 577.65 611.08 578.75 614.30 C 581.23 618.68 586.46 619.72 590.81 621.32 C 592.20 621.85 594.39 622.81 593.65 624.69 C 592.04 627.24 588.76 626.76 586.20 626.57 C 584.00 626.37 583.16 623.97 582.20 622.34 C 579.42 622.45 576.67 622.92 573.94 623.42 C 574.66 628.33 578.98 632.57 583.91 633.23 C 589.30 633.87 595.61 633.87 599.65 629.66 C 603.47 626.38 604.04 619.37 599.69 616.31 C 595.79 612.61 589.01 613.80 585.95 609.15 C 588.23 606.72 591.61 607.31 594.61 607.43 C 595.29 608.49 595.98 609.57 596.66 610.66 C 599.43 610.36 602.18 609.86 604.94 609.37 C 604.02 605.13 600.55 601.27 596.09 600.89 C 590.80 600.04 584.59 600.65 580.67 604.67 M 228.49 624.26 C 228.00 627.05 227.52 629.84 227.19 632.66 C 230.02 632.68 232.85 632.67 235.68 632.66 C 236.31 629.82 236.90 626.98 237.35 624.11 C 234.39 624.08 231.44 624.09 228.49 624.26 M 244.89 624.11 C 244.08 626.91 243.47 629.77 243.05 632.66 C 245.96 632.68 248.86 632.67 251.77 632.66 C 252.46 629.84 252.95 626.98 253.36 624.12 C 250.53 624.11 247.71 624.12 244.89 624.11 M 260.45 624.26 C 259.92 627.05 259.45 629.85 259.15 632.68 C 261.98 632.68 264.81 632.67 267.64 632.65 C 268.23 629.82 268.78 626.98 269.26 624.14 C 266.32 624.09 263.38 624.09 260.45 624.26 Z" />
<path fill="#ffffff" opacity="1.00" d=" M 189.41 410.52 C 211.81 408.36 235.05 410.97 255.65 420.37 C 263.78 424.45 271.56 429.50 277.78 436.22 C 288.04 447.49 294.06 462.71 293.56 478.01 C 294.03 490.65 291.32 503.59 284.22 514.22 C 275.67 527.70 261.39 536.25 246.76 541.76 C 238.32 544.35 229.76 546.80 220.93 547.61 C 199.84 549.91 178.01 548.43 158.06 540.83 C 145.42 535.63 133.16 528.25 124.70 517.31 C 113.25 502.38 111.29 482.15 115.06 464.19 C 117.49 450.24 124.99 436.89 136.63 428.61 C 152.21 417.98 170.73 412.29 189.41 410.52 Z" />
</g>
<g id="#0152a3ff">
<path fill="#0152a3" opacity="1.00" d=" M 362.52 0.00 L 364.92 0.00 C 367.33 11.11 369.80 22.21 371.81 33.40 C 374.66 46.01 377.16 58.70 379.53 71.41 C 371.67 71.36 363.86 70.10 355.99 70.64 C 354.62 70.40 351.17 71.45 351.73 68.98 C 355.56 46.03 358.69 22.96 362.52 0.00 Z" />
<path fill="#0152a3" opacity="1.00" d=" M 92.98 244.20 C 115.45 241.50 137.93 238.94 160.44 236.67 C 159.04 245.95 157.55 255.24 157.31 264.64 C 148.79 263.88 140.75 260.58 132.41 258.80 C 121.53 256.56 111.00 252.96 100.12 250.73 C 93.67 249.41 87.48 246.97 80.94 246.11 C 84.57 243.92 88.98 244.91 92.98 244.20 Z" />
<path fill="#0152a3" opacity="1.00" d=" M 561.53 248.57 C 580.04 249.45 598.49 251.09 616.99 251.80 C 624.32 252.80 631.76 252.19 639.07 253.40 C 630.04 257.00 620.47 258.93 611.34 262.24 C 599.96 265.41 588.82 269.40 577.41 272.49 C 572.53 273.83 567.87 276.14 562.78 276.64 C 562.84 267.26 562.51 257.90 561.53 248.57 Z" />
</g>
<g id="#0c5196ff">
<path fill="#0c5196" opacity="1.00" d=" M 262.16 12.02 C 264.46 14.70 266.21 17.77 267.97 20.81 C 266.88 21.92 265.80 23.03 264.71 24.14 C 263.68 20.14 262.64 16.13 262.16 12.02 Z" />
<path fill="#0c5196" opacity="1.00" d=" M 544.76 589.58 C 547.79 589.47 550.82 589.44 553.85 589.44 C 553.28 592.26 552.66 595.06 552.03 597.87 C 549.21 597.90 546.40 597.91 543.59 597.94 C 543.89 595.14 544.40 592.37 544.76 589.58 Z" />
</g>
<g id="#0252a3ff">
<path fill="#0252a3" opacity="1.00" d=" M 459.70 22.67 C 461.07 20.19 462.38 17.65 464.27 15.51 C 464.17 19.02 463.42 22.47 462.80 25.91 C 460.58 37.87 459.17 49.96 456.85 61.90 C 454.95 71.83 453.72 81.89 451.82 91.80 C 450.04 92.40 448.30 90.74 446.62 90.26 C 439.94 87.01 433.08 84.15 426.07 81.73 C 427.84 77.21 430.65 73.21 433.04 69.01 C 441.88 53.54 450.80 38.11 459.70 22.67 Z" />
<path fill="#0252a3" opacity="1.00" d=" M 264.71 24.14 C 265.80 23.03 266.88 21.92 267.97 20.81 C 278.18 36.06 287.86 51.66 297.91 67.01 C 300.19 70.81 302.83 74.39 304.90 78.31 C 295.88 80.87 287.07 84.13 278.45 87.82 C 273.91 66.58 269.07 45.41 264.71 24.14 Z" />
<path fill="#0252a3" opacity="1.00" d=" M 174.14 65.06 C 195.47 80.38 216.54 96.08 237.92 111.33 C 234.19 114.83 229.98 117.76 226.17 121.18 C 222.71 123.88 220.03 127.45 216.44 129.99 C 204.74 111.93 192.71 94.08 180.98 76.04 C 178.70 72.38 175.74 69.11 174.14 65.06 Z" />
<path fill="#0252a3" opacity="1.00" d=" M 545.58 74.68 C 546.85 73.68 548.15 72.58 549.80 72.27 C 549.08 74.29 548.07 76.18 546.94 77.99 C 535.09 97.95 523.36 117.97 511.53 137.94 C 508.29 135.74 505.89 132.60 503.09 129.91 C 499.24 126.01 495.13 122.38 491.01 118.77 C 509.14 104.00 527.44 89.44 545.58 74.68 Z" />
<path fill="#0252a3" opacity="1.00" d=" M 110.89 146.45 C 136.26 153.16 161.62 159.90 186.99 166.60 C 186.35 169.43 184.57 171.77 183.22 174.28 C 180.11 180.06 176.78 185.76 174.54 191.96 C 172.94 191.09 171.40 190.10 169.93 189.04 C 152.29 176.33 134.52 163.80 116.81 151.20 C 114.76 149.72 112.47 148.48 110.89 146.45 Z" />
<path fill="#0252a3" opacity="1.00" d=" M 583.27 162.57 C 592.23 160.32 600.72 156.50 609.74 154.51 C 608.80 157.16 606.17 158.48 604.15 160.19 C 588.65 172.34 573.24 184.60 557.76 196.78 C 555.18 198.67 552.97 201.44 549.64 201.95 C 546.71 193.31 542.53 185.17 538.49 177.00 C 553.33 171.94 568.45 167.72 583.27 162.57 Z" />
</g>
<g id="#0052a4ff">
<path fill="#0052a4" opacity="1.00" d=" M 277.27 265.57 C 296.79 263.21 316.34 260.72 336.01 260.21 C 370.44 258.33 404.97 260.71 439.13 265.06 C 487.34 271.92 534.78 284.83 579.26 304.76 C 630.62 327.65 678.22 360.12 715.34 402.63 C 718.18 405.96 721.26 409.16 723.29 413.08 C 718.16 410.56 713.49 407.23 708.49 404.48 C 668.98 381.37 626.43 363.72 582.69 350.40 C 529.77 334.64 475.10 324.76 420.01 320.95 C 366.30 316.65 312.23 318.61 258.76 324.86 C 249.49 326.10 240.27 327.65 231.00 328.93 C 217.94 330.70 205.11 333.81 192.17 336.26 C 124.75 351.02 58.76 374.82 0.00 411.41 L 0.00 408.33 C 15.57 389.20 33.68 372.22 53.10 357.05 C 81.62 334.78 113.24 316.59 146.46 302.34 C 188.12 284.17 232.37 272.33 277.27 265.57 Z" />
<path fill="#0052a4" opacity="1.00" d=" M 194.41 389.52 C 221.82 388.48 249.82 391.99 275.14 402.94 C 285.01 407.57 294.86 412.64 302.95 420.07 C 309.18 425.82 315.22 432.00 319.51 439.37 C 334.50 463.45 334.45 496.17 318.92 519.99 C 308.10 536.95 291.02 549.23 272.42 556.42 C 261.44 561.02 249.77 563.63 238.15 566.02 C 222.94 568.94 207.41 568.84 191.99 568.54 C 176.17 568.14 160.57 564.85 145.43 560.38 C 128.87 554.51 112.54 546.59 99.98 534.02 C 87.26 521.20 77.74 504.31 76.75 486.00 C 76.13 472.38 77.91 458.31 83.98 445.97 C 90.89 430.58 103.75 418.65 118.03 410.05 C 140.93 396.12 167.92 390.72 194.41 389.52 M 189.41 410.52 C 170.73 412.29 152.21 417.98 136.63 428.61 C 124.99 436.89 117.49 450.24 115.06 464.19 C 111.29 482.15 113.25 502.38 124.70 517.31 C 133.16 528.25 145.42 535.63 158.06 540.83 C 178.01 548.43 199.84 549.91 220.93 547.61 C 229.76 546.80 238.32 544.35 246.76 541.76 C 261.39 536.25 275.67 527.70 284.22 514.22 C 291.32 503.59 294.03 490.65 293.56 478.01 C 294.06 462.71 288.04 447.49 277.78 436.22 C 271.56 429.50 263.78 424.45 255.65 420.37 C 235.05 410.97 211.81 408.36 189.41 410.52 Z" />
<path fill="#0052a4" opacity="1.00" d=" M 374.07 392.66 C 391.69 392.55 409.33 392.35 426.93 392.75 C 429.02 394.93 429.97 397.92 431.46 400.51 C 455.08 447.06 479.40 493.26 502.58 540.03 C 509.59 524.30 518.33 509.43 526.08 494.07 C 541.83 464.45 557.39 434.74 573.08 405.09 C 575.66 401.12 576.92 396.33 580.06 392.75 C 595.83 392.34 611.64 392.58 627.42 392.64 C 627.67 443.76 627.45 494.88 627.53 546.00 C 627.44 552.62 627.72 559.26 627.36 565.88 C 615.95 565.79 604.53 565.82 593.11 565.86 C 593.07 536.58 593.10 507.29 593.09 478.00 C 592.90 459.63 593.49 441.23 592.76 422.87 C 567.38 470.48 541.91 518.03 516.77 565.76 C 505.99 565.86 495.20 565.93 484.43 565.72 C 460.44 519.63 436.39 473.57 412.45 427.46 C 411.25 425.20 410.13 422.88 408.54 420.86 C 408.23 469.19 408.71 517.54 408.30 565.87 C 396.90 565.80 385.50 565.83 374.10 565.86 C 373.66 514.24 374.04 462.62 373.91 411.00 C 373.94 404.89 373.80 398.77 374.07 392.66 Z" />
</g>
<g id="#0452a0ff">
<path fill="#0452a0" opacity="1.00" d=" M 304.57 592.60 C 312.97 586.35 327.19 587.75 332.07 597.77 C 336.20 607.46 333.63 619.74 326.10 627.10 C 325.19 627.72 325.13 628.37 325.93 629.05 C 327.36 630.43 328.95 631.62 330.47 632.91 C 329.05 634.85 327.59 636.76 326.04 638.60 C 323.48 636.77 321.03 634.77 318.98 632.38 C 313.26 633.57 306.80 634.52 301.51 631.38 C 297.15 628.31 293.67 623.51 293.40 618.04 C 292.73 608.49 296.54 598.19 304.57 592.60 M 311.85 597.90 C 308.15 599.85 305.39 603.32 304.08 607.28 C 302.28 612.26 301.53 618.51 305.07 622.93 C 307.21 625.60 310.94 625.70 314.07 625.65 C 312.99 624.04 311.53 622.75 309.99 621.61 C 310.92 620.05 311.43 617.96 313.10 617.06 C 315.71 617.35 317.38 619.89 319.30 621.46 C 322.88 618.41 324.65 613.67 324.69 609.05 C 324.66 606.05 325.24 602.50 322.88 600.17 C 320.37 596.84 315.47 595.99 311.85 597.90 Z" />
</g>
<g id="#05529eff">
<path fill="#05529e" opacity="1.00" d=" M 410.79 589.57 C 413.80 589.46 416.81 589.45 419.83 589.44 C 419.09 593.72 418.05 597.94 417.16 602.19 C 414.94 612.33 413.63 622.67 410.85 632.69 C 407.96 632.67 405.07 632.66 402.19 632.61 C 404.99 618.25 408.43 604.02 410.79 589.57 Z" />
<path fill="#05529e" opacity="1.00" d=" M 341.60 601.44 C 344.37 601.39 347.14 601.37 349.92 601.32 C 350.03 609.88 345.41 617.92 346.47 626.49 C 348.53 626.47 350.96 627.16 352.69 625.68 C 355.30 623.78 356.79 620.74 357.33 617.62 C 358.29 612.18 359.50 606.80 360.51 601.38 C 363.56 601.39 366.61 601.39 369.66 601.36 C 367.45 611.72 364.78 622.02 363.31 632.53 C 360.60 632.65 357.88 632.68 355.17 632.71 C 355.27 631.51 355.38 630.33 355.51 629.15 C 352.63 631.75 348.99 633.88 344.97 633.49 C 340.83 633.95 337.05 630.10 337.29 626.03 C 337.33 617.66 340.14 609.62 341.60 601.44 Z" />
</g>
<g id="#05529fff">
<path fill="#05529f" opacity="1.00" d=" M 510.20 589.42 C 519.78 589.53 529.37 589.51 538.95 589.43 C 538.76 592.01 538.43 594.58 538.09 597.15 C 531.28 597.75 524.44 597.20 517.61 597.48 C 516.95 600.46 516.35 603.46 515.90 606.48 C 522.25 606.81 528.62 606.73 534.98 606.52 C 535.44 609.29 534.43 611.98 533.78 614.64 C 527.53 614.72 521.27 614.44 515.03 614.73 C 514.73 614.97 514.12 615.46 513.81 615.70 C 512.44 621.29 511.71 627.02 510.55 632.65 C 507.41 632.67 504.27 632.66 501.13 632.65 C 504.58 618.33 506.51 603.68 510.20 589.42 Z" />
<path fill="#05529f" opacity="1.00" d=" M 615.91 595.94 C 618.80 593.85 621.99 592.22 624.97 590.27 C 624.08 593.86 623.29 597.48 623.02 601.19 C 624.58 601.29 626.16 601.39 627.74 601.50 C 627.30 603.62 626.86 605.74 626.50 607.89 C 624.77 608.15 623.02 608.31 621.29 608.46 C 620.37 614.34 618.44 620.06 618.11 626.03 C 619.71 626.22 621.32 626.37 622.94 626.49 C 622.79 628.63 622.60 630.77 622.49 632.92 C 618.06 633.82 611.85 634.45 609.51 629.61 C 608.33 622.40 611.60 615.53 612.11 608.43 C 611.27 608.32 609.58 608.10 608.73 607.99 C 609.12 605.90 609.45 603.81 609.69 601.71 C 611.04 601.44 612.39 601.18 613.75 600.89 C 614.41 599.23 614.31 597.04 615.91 595.94 Z" />
<path fill="#05529f" opacity="1.00" d=" M 442.53 596.44 C 445.75 594.44 448.96 592.40 452.40 590.79 C 451.81 594.30 451.09 597.78 450.51 601.30 C 455.22 601.57 459.94 601.39 464.65 601.33 C 465.79 608.52 466.49 615.76 467.43 622.98 C 470.82 615.66 474.58 608.51 478.43 601.41 C 481.32 601.38 484.21 601.37 487.11 601.38 C 486.58 603.02 486.00 604.66 485.16 606.18 C 478.85 617.29 473.06 628.70 466.70 639.80 C 463.95 645.38 456.83 646.73 451.48 644.26 C 451.71 642.12 451.93 639.99 452.16 637.86 C 454.03 637.77 455.91 637.71 457.79 637.63 C 462.92 633.20 459.82 626.25 459.19 620.64 C 457.85 614.48 457.67 607.96 455.16 602.13 C 454.62 604.02 454.28 605.96 453.92 607.90 C 452.16 608.16 450.40 608.37 448.64 608.57 C 447.93 614.08 446.52 619.46 445.79 624.96 C 446.73 627.03 449.19 626.24 450.98 626.49 C 450.37 628.73 450.68 631.61 448.95 633.31 C 445.69 633.51 441.97 634.05 439.20 631.90 C 437.32 630.62 436.28 628.27 436.68 626.02 C 437.31 620.07 439.35 614.37 439.94 608.42 C 439.06 608.36 437.31 608.24 436.44 608.18 C 436.65 605.94 437.02 603.72 437.41 601.52 C 438.80 601.34 440.19 601.14 441.58 600.92 C 441.88 599.42 442.21 597.93 442.53 596.44 Z" />
</g>
<g id="#09529aff">
<path fill="#09529a" opacity="1.00" d=" M 426.95 589.72 C 429.80 589.48 432.66 589.47 435.52 589.59 C 435.26 592.32 434.74 595.03 434.43 597.77 C 431.46 597.90 428.49 597.93 425.53 597.97 C 425.89 595.20 426.44 592.46 426.95 589.72 Z" />
</g>
<g id="#fcfefeff">
<path fill="#fcfefe" opacity="1.00" d=" M 311.85 597.90 C 315.47 595.99 320.37 596.84 322.88 600.17 C 325.24 602.50 324.66 606.05 324.69 609.05 C 324.65 613.67 322.88 618.41 319.30 621.46 C 317.38 619.89 315.71 617.35 313.10 617.06 C 311.43 617.96 310.92 620.05 309.99 621.61 C 311.53 622.75 312.99 624.04 314.07 625.65 C 310.94 625.70 307.21 625.60 305.07 622.93 C 301.53 618.51 302.28 612.26 304.08 607.28 C 305.39 603.32 308.15 599.85 311.85 597.90 Z" />
</g>
<g id="#06529dff">
<path fill="#06529d" opacity="1.00" d=" M 373.91 609.84 C 375.55 605.46 379.14 601.52 383.96 600.88 C 388.21 600.31 393.36 600.08 396.67 603.30 C 398.85 605.15 399.89 608.15 399.41 610.97 C 398.41 618.20 395.47 625.31 396.71 632.73 C 393.43 632.51 389.58 633.52 387.12 630.74 C 383.38 633.69 377.44 634.92 373.73 631.26 C 369.02 627.27 369.88 619.25 374.88 615.87 C 379.57 612.81 385.49 614.16 390.64 612.52 C 390.62 611.17 391.07 609.75 390.52 608.48 C 389.07 607.05 386.90 607.31 385.08 607.59 C 383.87 608.55 382.99 609.92 381.65 610.71 C 379.04 610.72 376.47 610.21 373.91 609.84 M 380.17 621.14 C 378.50 622.17 379.35 624.29 379.19 625.87 C 381.52 626.41 384.33 627.16 386.30 625.30 C 388.42 623.95 388.61 621.26 389.01 619.04 C 386.03 619.40 382.68 619.25 380.17 621.14 Z" />
<path fill="#06529d" opacity="1.00" d=" M 424.56 601.47 C 427.38 601.39 430.21 601.36 433.05 601.33 C 431.93 611.84 428.68 622.01 427.30 632.50 C 424.29 632.70 421.27 632.69 418.25 632.70 C 420.72 622.36 422.22 611.83 424.56 601.47 Z" />
<path fill="#06529d" opacity="1.00" d=" M 542.69 601.51 C 545.51 601.38 548.34 601.36 551.18 601.33 C 550.02 611.86 546.88 622.04 545.26 632.50 C 542.28 632.69 539.29 632.69 536.31 632.65 C 538.52 622.29 540.36 611.85 542.69 601.51 Z" />
<path fill="#06529d" opacity="1.00" d=" M 558.16 601.38 C 560.79 601.37 563.42 601.37 566.06 601.36 C 565.84 602.85 565.61 604.34 565.32 605.83 C 567.34 603.90 569.34 601.81 571.99 600.76 C 573.98 600.29 575.98 600.96 577.93 601.33 C 577.28 603.91 576.23 606.36 574.91 608.67 C 570.53 607.89 566.11 610.59 564.79 614.82 C 562.92 620.64 562.09 626.72 560.69 632.66 C 557.83 632.66 554.97 632.67 552.12 632.67 C 553.48 622.13 556.43 611.86 558.16 601.38 Z" />
</g>
<g id="#06529eff">
<path fill="#06529e" opacity="1.00" d=" M 580.67 604.67 C 584.59 600.65 590.80 600.04 596.09 600.89 C 600.55 601.27 604.02 605.13 604.94 609.37 C 602.18 609.86 599.43 610.36 596.66 610.66 C 595.98 609.57 595.29 608.49 594.61 607.43 C 591.61 607.31 588.23 606.72 585.95 609.15 C 589.01 613.80 595.79 612.61 599.69 616.31 C 604.04 619.37 603.47 626.38 599.65 629.66 C 595.61 633.87 589.30 633.87 583.91 633.23 C 578.98 632.57 574.66 628.33 573.94 623.42 C 576.67 622.92 579.42 622.45 582.20 622.34 C 583.16 623.97 584.00 626.37 586.20 626.57 C 588.76 626.76 592.04 627.24 593.65 624.69 C 594.39 622.81 592.20 621.85 590.81 621.32 C 586.46 619.72 581.23 618.68 578.75 614.30 C 577.65 611.08 578.10 607.10 580.67 604.67 Z" />
</g>
<g id="#f5fefeff">
<path fill="#f5fefe" opacity="1.00" d=" M 380.17 621.14 C 382.68 619.25 386.03 619.40 389.01 619.04 C 388.61 621.26 388.42 623.95 386.30 625.30 C 384.33 627.16 381.52 626.41 379.19 625.87 C 379.35 624.29 378.50 622.17 380.17 621.14 Z" />
</g>
<g id="#0b5197ff">
<path fill="#0b5197" opacity="1.00" d=" M 228.49 624.26 C 231.44 624.09 234.39 624.08 237.35 624.11 C 236.90 626.98 236.31 629.82 235.68 632.66 C 232.85 632.67 230.02 632.68 227.19 632.66 C 227.52 629.84 228.00 627.05 228.49 624.26 Z" />
</g>
<g id="#0a5198ff">
<path fill="#0a5198" opacity="1.00" d=" M 244.89 624.11 C 247.71 624.12 250.53 624.11 253.36 624.12 C 252.95 626.98 252.46 629.84 251.77 632.66 C 248.86 632.67 245.96 632.68 243.05 632.66 C 243.47 629.77 244.08 626.91 244.89 624.11 Z" />
</g>
<g id="#0b5198ff">
<path fill="#0b5198" opacity="1.00" d=" M 260.45 624.26 C 263.38 624.09 266.32 624.09 269.26 624.14 C 268.78 626.98 268.23 629.82 267.64 632.65 C 264.81 632.67 261.98 632.68 259.15 632.68 C 259.45 629.85 259.92 627.05 260.45 624.26 Z" />
</g>
</svg>
